<svg id="waterstofNet" data-name="waterstofNet" xmlns="http://www.w3.org/2000/svg" xmlns:xlink="http://www.w3.org/1999/xlink" width="344.32" height="263.2" viewBox="0 0 344.32 263.2"><defs><style>.cls-1{fill:none;}.cls-2{opacity:0.8;}.cls-3{fill:#aca7b0;}.cls-11,.cls-4{fill:#ec2024;}.cls-5{fill:#fff;}.cls-6{fill:#2297bf;}.cls-7{fill:#ffcc0a;}.cls-8{fill:#224762;}.cls-9{clip-path:url(#clip-path);}.cls-10,.cls-11{fill-rule:evenodd;}.cls-12{fill:#ec2224;}</style><clipPath id="clip-path" transform="translate(-56.6 -105.9)"><path class="cls-1" d="M246.5,316.5V105.9H189v79.2A190,190,0,0,1,246.5,316.5Z"/></clipPath></defs><g class="cls-2"><path class="cls-3" d="M246.6,321.4H114l42.5-27.7c47.4-30.9,61.8-36,116.5-45.4,30.9-5.3,31.9-5,52.9-18.6,20.4-13.3,21.2-14.9,6.7-14.7-16.1,0-20.5,1.2-42.5,15.4L280,237H246.3l10.1-6.6c55.5-36.2,84.8-43.1,118.6-43.1,31.2,0,42.8,4.4-14.7,41.9-45.7,29.8-63.1,35.5-102.7,43.1-38.1,7.3-40,3.5-67.5,21.5H289Z" transform="translate(-56.6 -105.9)"/></g><rect class="cls-4" width="57.5" height="11.4"/><rect class="cls-5" y="11.5" width="57.5" height="11.2"/><rect class="cls-6" y="22.7" width="57.5" height="11.6"/><path class="cls-7" d="M246.5,316.5V105.9H189v79.2A190,190,0,0,1,246.5,316.5Z" transform="translate(-56.6 -105.9)"/><path class="cls-8" d="M82.3,346.1h2.5l-6.5,22.6H75.9l-4.2-15.8c-.4-1.5-.5-2.7-.9-3.2h-.2a27.32,27.32,0,0,0-.9,3.4l-4,15.7H63.3l-6.6-22.6h2.4l4.4,15.6a19.63,19.63,0,0,0,1,3.5h.2c.2,0,.6-2.3,1-3.8l4-15.4h2.4l4.2,15.5c.2.7.5,3.2.9,3.6h.2c.3,0,.9-2.8,1.1-3.9Z" transform="translate(-56.6 -105.9)"/><path class="cls-8" d="M96,356.7c0-1.1,0-2.8-3.1-2.8a9.2,9.2,0,0,0-4.9,1.8l-1-2.1a12,12,0,0,1,6-1.6,6.46,6.46,0,0,1,3.7,1,3.85,3.85,0,0,1,1.6,3.5v9a2,2,0,0,0,.5,1.5c.3.2.4.2,1.4.2v1.9a4.55,4.55,0,0,1-2.6-.4,3.27,3.27,0,0,1-1.3-2.5v-.4h-.2c-1.7,1.9-3.2,3.2-5.8,3.2-2,0-2.9-.6-3.5-1.3a4.85,4.85,0,0,1-1.2-3,5.49,5.49,0,0,1,3.5-5c2.3-1,4.5-1,7-1v-2Zm-.1,3.4a13.11,13.11,0,0,0-5.2.7c-1.7.7-2.9,1.9-2.9,3.7a2.67,2.67,0,0,0,2.9,2.7c2.1,0,4.5-2.3,5.2-3.1Z" transform="translate(-56.6 -105.9)"/><path class="cls-8" d="M101.4,353.2h3V349l2.2-2.8v6.9h3.6v1.7h-3.6v9.8c0,1.2,0,2.5,1.5,2.5a6.4,6.4,0,0,0,3.3-1.3v2.1a8.37,8.37,0,0,1-3.8,1.1c-2.5,0-3.3-1.8-3.3-4.1V354.7h-3v-1.5Z" transform="translate(-56.6 -105.9)"/><path class="cls-8" d="M115.8,360.3c0,3,.6,6.7,4.4,6.7a4.28,4.28,0,0,0,3.6-1.8l1.6,1.2a6.12,6.12,0,0,1-5.2,2.5c-4.3,0-6.6-4.1-6.6-8a11,11,0,0,1,1.5-6.2,5.63,5.63,0,0,1,5-2.8c5,0,5.7,4.4,5.8,8.4Zm7.7-1.6a6.7,6.7,0,0,0-.7-3.3,3.5,3.5,0,0,0-2.9-1.6c-1.9,0-3.7,1.3-4,4.8h7.6Z" transform="translate(-56.6 -105.9)"/><path class="cls-8" d="M129.7,353.3l2.2-1.2v6c0,.2.1.2.1.2.8,0,2.1-4.5,6.9-6.1V356c-3.3,0-5,1.6-6.9,4.2v8.6h-2.3Z" transform="translate(-56.6 -105.9)"/><path class="cls-8" d="M142.6,365.3a6.56,6.56,0,0,0,4.4,1.9c2.2,0,3.5-1.2,3.5-2.8a2.94,2.94,0,0,0-1.8-2.5c-.4-.2-3.7-1.5-4.5-1.8a3.72,3.72,0,0,1-2.3-3.6c0-2.9,2.1-4.6,5-4.6a10.15,10.15,0,0,1,4.8,1.3l-.7,2a7.17,7.17,0,0,0-4.2-1.5,2.43,2.43,0,0,0-2.7,2.3c0,1.6,1,2,4,3.2,2.6,1,4.4,1.8,4.4,4.9,0,3.3-2.5,4.8-5.5,4.8a8.12,8.12,0,0,1-5.2-1.7Z" transform="translate(-56.6 -105.9)"/><path class="cls-8" d="M154.8,353.2h3V349l2.2-2.8v6.9h3.6v1.7H160v9.8c0,1.2,0,2.5,1.5,2.5a6.4,6.4,0,0,0,3.3-1.3v2.1A8.37,8.37,0,0,1,161,369c-2.5,0-3.3-1.8-3.3-4.1V354.7h-3v-1.5Z" transform="translate(-56.6 -105.9)"/><path class="cls-8" d="M174.1,369.1c-4.7,0-6.4-4.4-6.4-8.6,0-4,1.8-8.5,6.5-8.5,4.9,0,6.6,4.5,6.6,8.7C180.9,365.4,179.3,369.1,174.1,369.1Zm.1-15.1c-3.7,0-4.3,4.3-4.3,7.1s1.3,6,4.5,6,4.2-3.5,4.2-6.2S177.9,354,174.2,354Z" transform="translate(-56.6 -105.9)"/><path class="cls-8" d="M193.6,347.4a5.09,5.09,0,0,0-2.1-.6c-2.1,0-2.4,1.7-2.4,3.4v3h4v1.7h-3.9v13.9H187V354.9h-3.3v-1.7H187v-3c0-1.2,0-3.2,1.7-4.5a4.16,4.16,0,0,1,2.5-.7,7.27,7.27,0,0,1,2.5.4v2Z" transform="translate(-56.6 -105.9)"/><path d="M202.9,346.1l5.9,14.3c.5,1.3,1.3,3.5,1.8,4.9.2.6.4,1.3.8,1.3.1,0,.3-.2.3-.5v-20h2.2v22.6h-4.1l-6.3-15.4c-.7-1.8-.8-1.9-1.4-3.6-.4-1-.5-1.5-.8-1.5a.32.32,0,0,0-.3.3v20.2h-2.2V346.1Z" transform="translate(-56.6 -105.9)"/><path d="M222.1,360.3c0,3,.6,6.7,4.4,6.7a4.28,4.28,0,0,0,3.6-1.8l1.6,1.2a6.12,6.12,0,0,1-5.2,2.5c-4.3,0-6.6-4.1-6.6-8a11,11,0,0,1,1.5-6.2,5.63,5.63,0,0,1,5-2.8c5,0,5.7,4.4,5.8,8.4Zm7.7-1.6a6.7,6.7,0,0,0-.7-3.3,3.5,3.5,0,0,0-2.9-1.6c-1.9,0-3.7,1.3-4,4.8h7.6Z" transform="translate(-56.6 -105.9)"/><path d="M234.3,353.2h3V349l2.2-2.8v6.9h3.6v1.7h-3.6v9.8c0,1.2,0,2.5,1.5,2.5a6.4,6.4,0,0,0,3.3-1.3v2.1a8.37,8.37,0,0,1-3.8,1.1c-2.5,0-3.3-1.8-3.3-4.1V354.7h-3v-1.5Z" transform="translate(-56.6 -105.9)"/><g class="cls-9"><path class="cls-10" d="M226.3,154.1H228c.1-1-.6-1.3-1.7-1.1Zm.1,4c-1.1.3-3.3-.6-3.7.5C223.9,158.3,226.1,159.1,226.4,158.1Zm-5,2.3c-.1,2.4,3.2.5,3.7-.5C223.4,159.6,223.1,160.7,221.4,160.4Zm-1.4-.9c-.5-3.6-.9-4.5-1.4-7.8,2.3-1.4,5.7,1.1,6.9-1.4,4.8,1.1,9.7.3,14.3.9.1,1.7-.8,2.2-.9,3.7,2.9,4.9,1.4,11.6.5,17.5.3,1.4,1.8,1.5,3.7,1.4.1,3.6-5.3,3.2-6.9,1.4-4.7,4.3,2.6,11.4,5.1,4.1,1.8.7-1.8,4.8-3.7,5.5-2.2.1-4.4.1-5.5-.9,3.1,6.9,10.4,11.6,8.7,21.6,8-1.1,3.5-11-.5-12.9-.7-6.4,4.2-10.9,4.1-16.6,0-3.2-1.6-5.4-2.8-8.7,1.2-1.1,1.7,1.3,3.2,1.4,1.1-2.2,3.6-9.3,0-10.6-1.1,2.2.4,7.2-3.7,6.4,3.4-3.1-2.5-7.4.9-10.6h3.7c3.8,5,2.8,10.5,2.3,17.9-.3,4.9-2.2,10-2.3,14.3-.3,8.5,4.7,17.4-1.4,22.5a.68.68,0,0,0-.9.5c-1.8.1-3.3,0-4.1-.9a5.09,5.09,0,0,0-3.2,2.3h6c1.1,2.9,3.6,4.3,5.1,6.9,0,2.9-2.4,3.7-1.4,6.4-1.5.4-1.4-.7-2.3-.9.5,4.1,3.1,5.9,2.8,9.7-.4,4.4-4.8,5.9-6,9.7-2.8-4.8,4.8-6.3,3.7-12.4-.7-.9-1-2-2.8-1.8-.8,2.7.4,6.6-2.3,8.3-1.4.5-.4-1-.9-1.8-1.2-.9-3.2-1.1-2.8-3.7-1.5,3.8-5.4,1.4-8.3,2.8.3-2.5.7-4.8,3.2-5.1-3.4.1-1-5.3-5-4.6,2.2-4.2,7.8-2.2,11-.4.7-.1.2-1.4.9-1.4.2-1.6-1.4-1.4-1.8-2.3-7.7.1-13.4,2.3-20.7.5-2.6-4.4.7-8.9,3.7-10.6-.5-1.6-3.1-1.6-4.6-.9-1.6.1-.6,2.8-2.3,2.8-1.4-2.1.8-4,1.8-5.1-2.5.2-3.9,1.6-5.5,2.8,1.6,2.9,7.2,6.6,2.8,10.1-1-.9,1.1-4.3-1.4-4.6-1,.5-.2,2.9-.5,4.1-1.5,1.7-4.2,2.2-6,3.7.3,2.3.9,5.3,0,7.4-4,1.5-8.1,3-10.6,6,.3-6.8,8.7-5.5,8.7-12.4-4.1-.4-2.6,4.7-5.1,6a7.92,7.92,0,0,0-6,.9c1.1-2.3.6-6.1,3.7-6.4-3.8,1.3-7-3.1-6.4-6,2-.6,4.3-.8,5.5.9,1.3-1.2-1.6-2-2.3-2.8,1.2-1.9-.2-2.5-.9-3.7,1.4-1.4,4.3-.8,6,0a16.48,16.48,0,0,1,.9,4.1c1.6-.1,2.1-1.3,3.7-1.4-.4-3.1-2.9-4.1-4.1-6.4-1.8.4-3,1.2-5.5.9-1.4-1-3.3-3.5-1.8-6,1.5-.2.8,2,1.4,2.8,1.8.4,2.7.4,4.1-.5,3.3-10.1,22.4-10.2,33.6-6.9-1.7-2.2-5.4-2.6-7.8-4.1.3-1,2.6-.2,3.7-.5-2.2-1.9-5.4-2.9-6.9-5.5-1.7.3-1.7,2.3-1.8,4.1s2.4,1,3.2,1.8c-1,2.3-4.5-.2-5.5-.9-.4-1.3-1.1-2.3-1.4-3.7-1.5-.3-2.1.3-3.2.5-1.7,3.4-4,8.5-9.2,6.9.1-2.2,3.4-1.2,3.2-3.7-.2-1-2.3-.2-3.2-.5-1.5,1.7-1.8,4.6-4.1,5.5a33.16,33.16,0,0,0-6.4,0c-.1-2.4,1.7-2.9,2.3-4.6,0-1.4-2.2-.6-2.8-1.4-.4-1.2-.7-2.6.5-3.2,0-1.2-2-.5-1.4-2.3a8.31,8.31,0,0,1,3.7-.5c.9-.9-2.2-1.8-1.8-3.7.7-2.6,3.3-3.1,1.4-4.6,2.7-.2,3.4,1.5,5.1,2.3-.4,1.8-1.1,4.9.5,6,2.8,0,4.2-1.3,6.4-1.8-1-1.6-4.8-.4-5.1-2.8,4,.3,7.1-.3,9.2-1.8-6-.6-11.5-7.3-17-2.8,1.3-5.4,8.3-3.2,12.9-2.3a31.67,31.67,0,0,0-4.6-5.1c-2.1.4-3,1.8-5.4,1.8-.9-2,3.3-2.2,3.1-5-1.5-.9-5.8,1-7.8-.5.3-2.2,1-1.7.5-4.1,1.1-.9,2.9-1.1,5.1-.9-.7-1.3-2.7-1.3-3.2-2.8-.9-3.6,3.3-4.1.9-6.4,3.4-1.3,5.2,2.7,6,5.5.9-1.1.2-3.8,1.4-4.6,2.3-.1,2.3.3,4.6-.9,2.1.9.7,4.2.7,4.2a34.2,34.2,0,0,1-2.6,4.6c.4,1.4,2.2,1.5,2.8,2.8,2.7-3.3,4.4,2.6,7.8,2.8.4-2.5-3.9-5.8-7.8-4.1.7-1.2,2.1-1.6,3.8-1.7h.1a12.79,12.79,0,0,1,5.8,1.7c2.2,1,3.7,2.4,6.4,2.8-.8-2.2,1.8-3.3.5-4.6m7.8,34.7c.4-1.1-2.6-.1-.9,0C227.6,195.8,228.9,196.6,227.8,195.8Zm-11,9.7c4,.6,7.2,1.3,11,0,0-1.1-.8-1.4-.5-2.8A20.35,20.35,0,0,0,216.8,205.5Z" transform="translate(-56.6 -105.9)"/></g><path class="cls-11" d="M219.9,159.5c-4,.9-9,.6-10.4-2.5.2,0,.3.1.5.1a1.9,1.9,0,1,0,0-3.8,1.76,1.76,0,0,0-1.5.8c-1.6,1.8-.3,6.2.1,6.9a16.28,16.28,0,0,1,4.1,1.6c1.7-1.2,5.2-.5,6.8-1.8a3.22,3.22,0,0,0,1-1.5Z" transform="translate(-56.6 -105.9)"/><path class="cls-12" d="M189.8,170.2s.7,2.3,2.3,2.1.2-1.7.2-1.7S190.6,171.2,189.8,170.2Z" transform="translate(-56.6 -105.9)"/><path class="cls-12" d="M237.4,237s2.5-.6,2.4-2.2-1.8-.3-1.8-.3S238.4,236.2,237.4,237Z" transform="translate(-56.6 -105.9)"/><path class="cls-12" d="M189.7,152.6s2.7-1,3.9.6-2.8,1.3-2.8,1.3A1.62,1.62,0,0,0,189.7,152.6Z" transform="translate(-56.6 -105.9)"/><path class="cls-12" d="M189.4,178.8s2.3-.4,3,1-2.4.6-2.4.6S190.5,179.2,189.4,178.8Z" transform="translate(-56.6 -105.9)"/><path class="cls-12" d="M227,234.4s-1-3.2.9-4.5,1.4,3.4,1.4,3.4S227.4,232.7,227,234.4Z" transform="translate(-56.6 -105.9)"/><path class="cls-12" d="M202.2,151.7s1.8,2.3.6,3.9-2.3-2.3-2.3-2.3S202.4,152.8,202.2,151.7Z" transform="translate(-56.6 -105.9)"/><path class="cls-12" d="M225.1,224s1.3-2.7,3.2-2.5-1,3.1-1,3.1S225.9,223.4,225.1,224Z" transform="translate(-56.6 -105.9)"/><path class="cls-8" d="M114.1,321.4V237h75v84.4h57.5v-4.8a188.81,188.81,0,0,0-57.5-131.3h-75v-45a190.93,190.93,0,0,0-57.4-8.9v190Z" transform="translate(-56.6 -105.9)"/></svg>